<?xml version="1.0" encoding="utf-8"?>
<!DOCTYPE svg PUBLIC "-//W3C//DTD SVG 1.1//EN" "http://www.w3.org/Graphics/SVG/1.1/DTD/svg11.dtd">
<svg version="1.1"
    xmlns="http://www.w3.org/2000/svg"
    xmlns:xlink="http://www.w3.org/1999/xlink" x="0px" y="0px" viewBox="0 0 256 256" enable-background="new 0 0 256 256" xml:space="preserve">
    <g>
        <g>
            <g>
                <path fill="#000000" d="M19.8,22.8c-4.6,1.6-8.4,5.8-9.3,10.4c-0.4,1.7-0.5,25.3-0.4,79c0.1,73.3,0.2,76.7,1,78.4c1.3,2.7,3,4.8,5.2,6.3c4.3,2.9-2.9,2.7,111.8,2.7c114.8,0,107.5,0.2,111.9-2.8c2.5-1.8,4.5-4.6,5.5-7.9c0.7-2.3,0.7-10.1,0.6-79.4l-0.1-76.8l-1.3-2.6c-1.5-3-4.1-5.6-7.2-7l-2.1-1l-106.5-0.1C26.5,22,22.1,22,19.8,22.8z M196.7,81.2c1,0.3,2.7,1.3,3.8,2.4c6.5,6,2.4,16.6-6.5,16.6c-1.2,0-2.6-0.2-3.2-0.5c-1.1-0.5-1.8,0-13.3,10.5l-12.2,11v2.8c0,6.4-5.6,11-11.8,9.5c-4.3-1-7.4-4.9-7.5-9.3l0-2.1l-9.1-7.6c-5-4.2-10.4-8.8-12.1-10.3l-3.1-2.6l-2.3,0.7c-2.4,0.7-4,0.6-6.5-0.6c-1.3-0.6-1.6-0.6-2.4,0c-0.5,0.3-10.3,8.1-21.8,17.3l-20.9,16.7l0.3,2.1c0.3,2.3-0.8,5.7-2.5,7.5c-2.1,2.3-6.4,3.5-9.5,2.6c-8.7-2.4-9.7-13.9-1.7-18.1c2.3-1.2,5.7-1.2,7.8,0l1.6,0.8l21.8-16.9l21.8-17l-0.1-2.5c-0.3-4.2,2.2-8.4,5.8-10c1.9-0.8,5.7-0.8,7.7,0c3.6,1.5,6.1,5.7,5.8,9.9l-0.1,2.6l10,8.5c5.5,4.7,10.7,9.1,11.7,9.9l1.7,1.4l1.9-1c2.2-1.1,5.4-1.2,7.7-0.2l1.7,0.7l9.5-8.7c5.3-4.7,10.6-9.6,11.9-10.8l2.3-2.2l-0.2-3c-0.1-2.4,0-3.4,0.7-4.8c1.3-2.4,3.1-4.2,5.4-5C193,80.6,194.4,80.6,196.7,81.2z"/>
                <path fill="#000000" d="M93.7,214.4c-4.2,4.3-10.2,10.4-13.4,13.7l-5.8,5.9h53.6h53.7l-13.3-13.7l-13.3-13.7h-26.9h-26.9L93.7,214.4z"/>
            </g>
        </g>
    </g>
</svg>